<svg xmlns="http://www.w3.org/2000/svg" xmlns:se="http://svg-edit.googlecode.com" xmlns:xlink="http://www.w3.org/1999/xlink" xmlns:dc="http://purl.org/dc/elements/1.1/" xmlns:cc="http://creativecommons.org/ns#" xmlns:rdf="http://www.w3.org/1999/02/22-rdf-syntax-ns#" xmlns:inkscape="http://www.inkscape.org/namespaces/inkscape" width="777" height="480" style="">                                    <title>my vector image</title>                                    <!-- Created with Vector Paint - http://www.vectorpaint.yaks.com/ https://chrome.google.com/webstore/detail/hnbpdiengicdefcjecjbnjnoifekhgdo -->                                    <rect id="backgroundrect" width="100%" height="100%" x="0" y="0" fill="#FFFFFF" stroke="none"/>                                <g class="currentLayer" style=""><title>Layer 1</title><path fill="#4ad371" stroke="#222222" stroke-width="2" stroke-linejoin="round" stroke-dashoffset="" fill-rule="nonzero" marker-start="" marker-mid="" marker-end="" id="svg_16" d="M366.2519798209936,279.1445921456653 C362.3462283987533,277.6361169457959 367.4429342720828,274.6201621276656 369.37251165665424,273.2860452014194 C370.6722464641568,272.25860184934794 361.92363802568525,273.43017285861686 365.6172242524938,269.8635048722771 C369.66962700674964,266.94973179182267 368.13884269300524,262.0202722504198 364.0881945785413,259.728875429516 C358.51365642253495,256.50519470003496 351.36116704175026,253.74617507546162 349.3017280347171,247.72668516324495 C347.21932883484345,243.97741248202146 352.15777350950685,240.0286634414647 348.9813929513118,236.642972154927 C346.4246926813547,232.24700973370705 349.4116452514906,227.6629418726681 351.2682515535079,223.59076575857625 C352.12205927863977,217.95773683350518 346.8917887617669,213.50308205870175 344.01546257533215,208.87523678367114 C340.453916648733,204.4527630886423 338.40087842146477,199.29956379961698 338.10586132811795,193.92931832737688 C337.33131945580806,191.63706993981467 338.18847927405614,188.07727084043273 341.2813718774197,191.16768451839204 C347.75835052492704,195.60949691658027 354.8689844355681,199.8242415695002 359.402107317161,205.90401113050575 C360.2601810103038,208.10007318537373 363.69606913895046,214.46488903200424 363.8879316897347,208.70118532450778 C363.9777911803292,200.7793768937097 366.8028233967056,192.13945983082596 374.0417470649917,186.8308433648429 C378.96553684184653,182.98833665739213 381.62091732286945,189.7164114304463 381.85065816026963,193.1353639088831 C383.1322287903716,199.86242744652537 381.00787176635566,206.53340655348893 378.6405958289725,212.88803177703602 C377.771544670603,215.84123051539171 375.50831521767424,223.93407235292915 381.9630757387577,220.95010450746355 C396.8325257784697,216.0333996814 414.84796820840245,221.19726233823235 424.5332874469094,231.7593845058135 C428.9855433668674,236.87343364379535 430.9353466305931,243.44379639296898 430.891327104688,249.7524526706785 C428.59876226765726,253.4587588046893 437.11686586931114,249.68302181105474 434.03031921321536,253.95898220993945 C432.21330197161507,258.69572783312645 427.0795147105693,261.2659407276907 423.48344624597644,264.8412089111445 C419.82415226069475,267.70612022372535 422.5392380163048,273.8314235549629 416.4878253185181,274.7339808994395 C407.6580794114397,277.0652354230941 398.38612040957355,278.0864109940847 389.1940450399542,278.68080452273045 C384.0501868775753,279.58336186720953 381.55384621663495,274.54582849822793 386.48405139525966,272.45159753594015 C388.84772666555494,269.33085931875684 395.61013403101595,269.1121632251412 397.6193793733589,268.61778181764106 C392.81793916733363,269.0201345414278 386.89656721149004,267.34171543921894 382.8506456579791,269.888469550759 C380.4003862247003,273.2951682354176 378.4379422434437,277.77912379099257 373.29972086141026,278.7514970785455 C370.9906148887924,279.30075444345584 368.61644102370246,279.74122103679736 366.2519834764911,279.14458901490667 L366.2519798209936,279.1445921456653 z" style="color: rgb(74, 211, 113);" class="selected"/></g></svg>